<svg id="Layer_3" data-name="Layer 3" xmlns="http://www.w3.org/2000/svg" viewBox="0 0 44 43.6"><defs><style>.cls-1,.cls-2{fill:#fff;}.cls-2{fill-rule:evenodd;}</style></defs><path class="cls-1" d="M1.41,15.81H39.19a0,0,0,0,1,0,0v3.94a0,0,0,0,1,0,0H-2.53a0,0,0,0,1,0,0v0a3.94,3.94,0,0,1,3.94-3.94Z" transform="translate(-6.67 12.58) rotate(-32.37)"/><path class="cls-1" d="M5.62,24.2H46.54a0,0,0,0,1,0,0v0a3.94,3.94,0,0,1-3.94,3.94h-37a0,0,0,0,1,0,0V24.2A0,0,0,0,1,5.62,24.2Z" transform="translate(-9.96 18.03) rotate(-32.37)"/><path class="cls-1" d="M.59,20.69H41.68a.52.52,0,0,1,.52.52v2.7a.52.52,0,0,1-.52.52H1.77A1.58,1.58,0,0,1,.19,22.85V21.1a.4.4,0,0,1,.4-.4Z" transform="translate(-8.78 14.85) rotate(-32.37)"/><rect class="cls-1" x="10.92" y="12.1" width="11.76" height="3.74" transform="translate(19.61 -7.71) rotate(57.63)"/><path class="cls-2" d="M7.07,12.35,4.63,8.51a22,22,0,0,0-2.91,22l3.7-2.35a17.8,17.8,0,0,1-1.17-6.3A17.58,17.58,0,0,1,7.07,12.35Z" transform="translate(0 0)"/><path class="cls-2" d="M22,0a22,22,0,0,0-5,.57l2.42,3.82A17.37,17.37,0,0,1,22,4.19a17.68,17.68,0,0,1,12.82,5.5,1,1,0,0,1,1,.43l.08.13a1,1,0,0,1,.11.77,17.78,17.78,0,0,1,2,3.14l3.63-2.31A22,22,0,0,0,22,0Z" transform="translate(0 0)"/><path class="cls-2" d="M42.33,13.6l-3.69,2.34a17.63,17.63,0,0,1,1,6c0,9.79-3.85,17.33-13.64,17.33a17.6,17.6,0,0,1-5.74-1l-4.45,2.82a21.83,21.83,0,0,0,10.22,2.52C38.23,43.61,44,34.15,44,22A21.93,21.93,0,0,0,42.33,13.6Z" transform="translate(0 0)"/><path class="cls-2" d="M12.7,37a17.68,17.68,0,0,1-3.27-2.56,1,1,0,0,1-1.22-.33,1,1,0,0,1,0-1,17.29,17.29,0,0,1-2-3L2.62,32.43a22.11,22.11,0,0,0,6.09,7.09Z" transform="translate(0 0)"/></svg>