<?xml version="1.0" encoding="utf-8"?>
<!-- Generator: Adobe Illustrator 27.5.0, SVG Export Plug-In . SVG Version: 6.00 Build 0)  -->
<svg version="1.1" id="Layer_3" xmlns="http://www.w3.org/2000/svg" xmlns:xlink="http://www.w3.org/1999/xlink" x="0px" y="0px"
	 viewBox="0 0 44 43.6" style="enable-background:new 0 0 44 43.6;" xml:space="preserve">
<style type="text/css">
	.st0{fill-rule:evenodd;clip-rule:evenodd;}
</style>
<path d="M3,25.2L34.9,5l0,0L37,8.3l0,0L1.8,30.6l0,0l0,0C0.6,28.8,1.1,26.3,3,25.2C3,25.2,3,25.2,3,25.2z"/>
<path d="M7.7,35.5l34.6-21.9l0,0l0,0c1.2,1.8,0.6,4.3-1.2,5.4L9.8,38.8l0,0L7.7,35.5L7.7,35.5z"/>
<path d="M2.8,32l34.7-22c0.2-0.2,0.6-0.1,0.7,0.2l0,0l1.4,2.3c0.2,0.2,0.1,0.6-0.2,0.7l0,0L5.8,34.5C5.1,35,4.1,34.8,3.6,34l0,0
	l-0.9-1.5C2.6,32.4,2.6,32.1,2.8,32L2.8,32z"/>
<rect x="14.9" y="8.1" transform="matrix(0.8446 -0.5354 0.5354 0.8446 -4.8619 11.1664)" width="3.7" height="11.8"/>
<path class="st0" d="M7.1,12.4L4.6,8.5c-4.9,6.3-6,14.7-2.9,22l3.7-2.4c-0.8-2-1.2-4.1-1.2-6.3C4.3,18.5,5.2,15.2,7.1,12.4z"/>
<path class="st0" d="M22,0c-1.7,0-3.4,0.2-5,0.6l2.4,3.8c0.9-0.1,1.7-0.2,2.6-0.2c4.8,0,9.5,2,12.8,5.5c0.4-0.1,0.8,0.1,1,0.4
	l0.1,0.1c0.1,0.2,0.2,0.5,0.1,0.8c0.8,1,1.4,2,2,3.1l3.6-2.3C37.8,4.5,30.3,0,22,0z"/>
<path class="st0" d="M42.3,13.6l-3.7,2.3c0.7,1.9,1,4,1,6c0,9.8-3.8,17.3-13.6,17.3c-2,0-3.9-0.4-5.7-1l-4.4,2.8
	c3.2,1.7,6.7,2.5,10.2,2.5c12.2,0,18-9.5,18-21.6C44,19.1,43.4,16.3,42.3,13.6z"/>
<path class="st0" d="M12.7,37c-1.2-0.7-2.3-1.6-3.3-2.6c-0.4,0.2-0.9,0.1-1.2-0.3c-0.2-0.3-0.2-0.7,0-1c-0.8-0.9-1.4-1.9-2-3
	l-3.6,2.3c1.5,2.8,3.6,5.2,6.1,7.1L12.7,37z"/>
</svg>
